<?xml version="1.0" standalone="no"?>
<!DOCTYPE svg PUBLIC "-//W3C//DTD SVG 20010904//EN"
 "http://www.w3.org/TR/2001/REC-SVG-20010904/DTD/svg10.dtd">
<svg version="1.0" xmlns="http://www.w3.org/2000/svg"
 width="700.000000pt" height="700.000000pt" viewBox="0 0 700.000000 700.000000"
 preserveAspectRatio="xMidYMid meet">
<metadata>
Created by potrace 1.14, written by Peter Selinger 2001-2017
</metadata>
<g transform="translate(0.000000,700.000000) scale(0.100000,-0.100000)"
fill="#000000" stroke="none">
<path d="M2685 5749 c-11 -6 -509 -500 -1108 -1098 -1182 -1181 -1125 -1118
-1092 -1198 11 -27 314 -337 1073 -1096 581 -583 1075 -1072 1096 -1088 31
-23 49 -29 89 -29 l50 0 189 187 188 187 -35 35 -35 36 -178 -178 c-97 -97
-182 -177 -187 -177 -13 0 -2165 2152 -2165 2165 0 16 2154 2165 2170 2165 8
0 96 -81 195 -180 l181 -180 34 35 34 35 -159 161 c-88 88 -177 174 -198 191
-42 34 -108 46 -142 27z"/>
<path d="M4205 5741 c-16 -10 -181 -170 -365 -355 l-335 -336 -127 127 -128
127 -35 -34 -35 -34 127 -128 128 -128 -702 -703 c-385 -386 -706 -712 -712
-724 -6 -12 -11 -41 -11 -65 l0 -43 712 -712 713 -713 -135 -135 -134 -135 34
-35 34 -35 136 134 135 135 350 -350 c368 -368 380 -377 448 -358 24 6 301
278 1130 1106 l1097 1098 0 43 c0 24 -5 53 -11 65 -16 31 -2158 2175 -2191
2193 -37 19 -87 18 -123 -5z m1152 -1153 c590 -590 1073 -1080 1073 -1088 0
-8 -486 -501 -1080 -1095 l-1080 -1080 -347 347 -348 348 707 707 c769 770
739 736 708 816 -8 20 -271 291 -714 735 l-701 702 340 340 c187 187 347 340
355 340 8 0 498 -483 1087 -1072z m-457 -1088 c0 -8 -314 -329 -697 -712
l-698 -698 -697 697 c-384 384 -698 705 -698 713 0 8 314 329 697 712 l698
698 697 -697 c384 -384 698 -705 698 -713z"/>
<path d="M3108 3834 c-246 -245 -358 -363 -358 -377 0 -15 112 -134 357 -379
280 -280 363 -358 383 -358 19 0 103 78 382 358 226 226 358 365 358 377 0 12
-132 151 -357 377 -283 283 -363 358 -383 358 -19 0 -104 -79 -382 -356z"/>
</g>
</svg>
